<svg width="118" height="55" viewBox="0 0 118 55" fill="none" xmlns="http://www.w3.org/2000/svg">
<path fill-rule="evenodd" clip-rule="evenodd" d="M40.5067 10.634L35.0067 0L29.0067 10.634L35.0067 23L40.5067 10.634ZM114.241 33.8111C114.575 33.5879 114.967 33.4688 115.369 33.4688C115.908 33.4693 116.424 33.6835 116.805 34.0643C117.186 34.4451 117.4 34.9615 117.4 35.5C117.4 35.9017 117.281 36.2945 117.058 36.6285C116.835 36.9625 116.518 37.2229 116.146 37.3766C115.775 37.5304 115.367 37.5706 114.973 37.4922C114.579 37.4138 114.217 37.2204 113.933 36.9363C113.649 36.6522 113.455 36.2903 113.377 35.8963C113.298 35.5023 113.339 35.0938 113.492 34.7227C113.646 34.3515 113.907 34.0343 114.241 33.8111ZM114.414 36.9291C114.697 37.1179 115.029 37.2188 115.369 37.2188C115.825 37.2182 116.262 37.037 116.584 36.7148C116.906 36.3926 117.087 35.9557 117.088 35.5C117.088 35.1601 116.987 34.8278 116.798 34.5451C116.609 34.2625 116.341 34.0422 116.027 33.9121C115.713 33.782 115.367 33.748 115.034 33.8143C114.7 33.8806 114.394 34.0443 114.154 34.2847C113.913 34.525 113.75 34.8313 113.683 35.1647C113.617 35.4981 113.651 35.8437 113.781 36.1577C113.911 36.4718 114.132 36.7402 114.414 36.9291ZM115.011 35.1417C115.04 35.1124 115.057 35.0727 115.057 35.0312C115.057 34.9898 115.04 34.9501 115.011 34.9208C114.981 34.8915 114.942 34.875 114.9 34.875H114.275C114.234 34.875 114.194 34.8915 114.165 34.9208C114.136 34.9501 114.119 34.9898 114.119 35.0312C114.119 35.0727 114.136 35.1124 114.165 35.1417C114.194 35.171 114.234 35.1875 114.275 35.1875H114.432V35.9688C114.432 36.0102 114.448 36.0499 114.477 36.0792C114.507 36.1085 114.546 36.125 114.588 36.125C114.629 36.125 114.669 36.1085 114.698 36.0792C114.728 36.0499 114.744 36.0102 114.744 35.9688V35.1875H114.9C114.942 35.1875 114.981 35.171 115.011 35.1417ZM116.573 36.0792C116.603 36.0499 116.619 36.0102 116.619 35.9688V35.0312C116.619 34.9995 116.609 34.9686 116.591 34.9426C116.573 34.9165 116.548 34.8966 116.518 34.8854C116.488 34.8743 116.456 34.8724 116.425 34.88C116.394 34.8877 116.367 34.9045 116.346 34.9283L115.916 35.4189L115.486 34.9283C115.465 34.9045 115.438 34.8877 115.407 34.88C115.376 34.8724 115.344 34.8743 115.314 34.8854C115.284 34.8966 115.259 34.9165 115.241 34.9426C115.223 34.9686 115.213 34.9995 115.213 35.0312V35.9688C115.213 36.0102 115.229 36.0499 115.259 36.0792C115.288 36.1085 115.328 36.125 115.369 36.125C115.411 36.125 115.45 36.1085 115.48 36.0792C115.509 36.0499 115.525 36.0102 115.525 35.9688V35.4471L115.799 35.7596C115.813 35.7762 115.831 35.7895 115.852 35.7986C115.872 35.8078 115.894 35.8125 115.916 35.8125C115.938 35.8125 115.96 35.8078 115.98 35.7986C116 35.7895 116.018 35.7762 116.033 35.7596L116.307 35.4471V35.9688C116.307 36.0102 116.323 36.0499 116.352 36.0792C116.382 36.1085 116.421 36.125 116.463 36.125C116.504 36.125 116.544 36.1085 116.573 36.0792ZM53.0934 35.6818L64.8241 31.3344L69.2849 29.6812L64.7803 28.1512L53.0934 24.1818L48.9233 13.2001L45.869 5.15681L45.927 13.7603L45.939 15.5391L35.3296 29.4131L23.3291 14.841L23.3391 12.9467L23.3806 5.12331L20.3423 12.3328L15.3488 24.1818L4.44671 28.0881L0 29.6814L4.44664 31.2749L15.3488 35.1818L20.1577 47.1295L23.1187 54.4861L23.1608 46.556L23.3125 17.967L34.6267 31.7057L35.3702 32.9965L36.2104 31.5536L45.961 18.8028L46.1441 45.9454L46.202 54.5191L49.1477 46.4672L53.0934 35.6818ZM49.0899 37.8934L50.2761 34.6511L50.752 33.3502L52.0509 32.8688L60.3195 29.8044L52.1286 27.0224L50.7905 26.568L50.2888 25.2468L48.9813 21.8036L49.0899 37.8934ZM18.1133 25.3468L20.3008 20.1562L20.1998 39.1994L18.1318 34.0616L17.6289 32.812L16.3609 32.3576L8.89335 29.6816L16.3607 27.0059L17.6015 26.5614L18.1133 25.3468ZM60.2809 44.88C60.7049 45.064 61.1849 45.156 61.7209 45.156C62.2649 45.156 62.7489 45.064 63.1729 44.88C63.6049 44.696 63.9649 44.436 64.2529 44.1C64.5489 43.756 64.7729 43.356 64.9249 42.9C65.0769 42.436 65.1529 41.924 65.1529 41.364V37.296C65.1529 37.176 65.1409 37.076 65.1169 36.996C65.0929 36.916 65.0409 36.856 64.9609 36.816C64.8889 36.768 64.7769 36.744 64.6249 36.744C64.4649 36.744 64.3449 36.764 64.2649 36.804C64.1849 36.844 64.1289 36.9 64.0969 36.972C64.0729 37.036 64.0609 37.116 64.0609 37.212V41.328C64.0609 41.896 63.9689 42.384 63.7849 42.792C63.6009 43.2 63.3369 43.516 62.9929 43.74C62.6489 43.964 62.2369 44.076 61.7569 44.076C61.2449 44.076 60.8169 43.96 60.4729 43.728C60.1289 43.488 59.8689 43.164 59.6929 42.756C59.5169 42.348 59.4289 41.876 59.4289 41.34V37.296C59.4289 37.176 59.4169 37.076 59.3929 36.996C59.3689 36.916 59.3169 36.856 59.2369 36.816C59.1569 36.768 59.0369 36.744 58.8769 36.744C58.7169 36.744 58.5969 36.768 58.5169 36.816C58.4449 36.856 58.3929 36.916 58.3609 36.996C58.3369 37.076 58.3249 37.172 58.3249 37.284V41.34C58.3249 41.892 58.4009 42.404 58.5529 42.876C58.7049 43.34 58.9249 43.744 59.2129 44.088C59.5089 44.424 59.8649 44.688 60.2809 44.88ZM66.9995 45.048C67.0796 45.096 67.1996 45.12 67.3596 45.12H71.9076C72.0116 45.12 72.0996 45.108 72.1716 45.084C72.2436 45.06 72.2996 45.012 72.3396 44.94C72.3796 44.86 72.3996 44.752 72.3996 44.616C72.3996 44.472 72.3755 44.364 72.3276 44.292C72.2876 44.22 72.2316 44.172 72.1596 44.148C72.0876 44.124 71.9995 44.112 71.8956 44.112H67.8755V37.284C67.8755 37.172 67.8636 37.076 67.8396 36.996C67.8156 36.916 67.7635 36.856 67.6836 36.816C67.6115 36.768 67.4956 36.744 67.3356 36.744C67.1756 36.744 67.0555 36.768 66.9756 36.816C66.9035 36.856 66.8556 36.916 66.8316 36.996C66.8076 37.076 66.7956 37.176 66.7956 37.296V44.58C66.7956 44.692 66.8076 44.788 66.8316 44.868C66.8636 44.948 66.9196 45.008 66.9995 45.048ZM80.003 36.78C79.939 36.756 79.855 36.744 79.751 36.744H73.643C73.547 36.744 73.459 36.756 73.379 36.78C73.307 36.804 73.251 36.852 73.211 36.924C73.179 36.988 73.163 37.096 73.163 37.248C73.163 37.392 73.183 37.5 73.223 37.572C73.263 37.644 73.319 37.692 73.391 37.716C73.463 37.732 73.551 37.74 73.655 37.74H76.175V44.58C76.175 44.684 76.183 44.78 76.199 44.868C76.223 44.948 76.271 45.008 76.343 45.048C76.423 45.096 76.543 45.12 76.703 45.12C76.855 45.12 76.967 45.096 77.039 45.048C77.119 45.008 77.171 44.948 77.195 44.868C77.227 44.788 77.243 44.696 77.243 44.592V37.74H79.727C79.831 37.74 79.919 37.732 79.991 37.716C80.063 37.692 80.119 37.644 80.159 37.572C80.207 37.5 80.231 37.392 80.231 37.248C80.231 37.096 80.211 36.988 80.171 36.924C80.131 36.852 80.075 36.804 80.003 36.78ZM81.6117 45.048C81.6917 45.096 81.8117 45.12 81.9717 45.12C82.1317 45.12 82.2477 45.096 82.3197 45.048C82.3997 45.008 82.4517 44.948 82.4757 44.868C82.4997 44.788 82.5117 44.692 82.5117 44.58V37.296C82.5117 37.176 82.4997 37.076 82.4757 36.996C82.4597 36.916 82.4117 36.856 82.3317 36.816C82.2597 36.768 82.1437 36.744 81.9837 36.744C81.8237 36.744 81.7037 36.768 81.6237 36.816C81.5517 36.856 81.4997 36.916 81.4677 36.996C81.4437 37.076 81.4317 37.172 81.4317 37.284V44.568C81.4317 44.68 81.4437 44.78 81.4677 44.868C81.4917 44.948 81.5397 45.008 81.6117 45.048ZM84.2853 45.048C84.3653 45.096 84.4813 45.12 84.6333 45.12C84.8013 45.12 84.9213 45.096 84.9933 45.048C85.0733 45.008 85.1253 44.948 85.1493 44.868C85.1813 44.788 85.1973 44.692 85.1973 44.58V42.168H87.2613C87.6453 42.168 87.9973 42.108 88.3173 41.988C88.6453 41.868 88.9333 41.696 89.1813 41.472C89.4293 41.24 89.6213 40.956 89.7573 40.62C89.8933 40.284 89.9613 39.9 89.9613 39.468C89.9613 39.028 89.8933 38.64 89.7573 38.304C89.6213 37.968 89.4293 37.684 89.1813 37.452C88.9413 37.212 88.6573 37.036 88.3293 36.924C88.0093 36.804 87.6573 36.744 87.2733 36.744H84.6453C84.5013 36.744 84.3893 36.768 84.3093 36.816C84.2293 36.864 84.1733 36.928 84.1413 37.008C84.1173 37.088 84.1053 37.18 84.1053 37.284V44.568C84.1053 44.68 84.1173 44.78 84.1413 44.868C84.1653 44.948 84.2133 45.008 84.2853 45.048ZM87.2733 41.076H85.1973V37.836H87.2613C87.5973 37.836 87.8853 37.9 88.1253 38.028C88.3733 38.156 88.5613 38.34 88.6893 38.58C88.8173 38.82 88.8813 39.108 88.8813 39.444C88.8813 39.796 88.8133 40.096 88.6773 40.344C88.5413 40.584 88.3533 40.768 88.1133 40.896C87.8733 41.016 87.5933 41.076 87.2733 41.076ZM91.4683 45.048C91.5483 45.096 91.6683 45.12 91.8283 45.12H96.3763C96.4803 45.12 96.5683 45.108 96.6403 45.084C96.7123 45.06 96.7683 45.012 96.8083 44.94C96.8483 44.86 96.8683 44.752 96.8683 44.616C96.8683 44.472 96.8443 44.364 96.7963 44.292C96.7563 44.22 96.7003 44.172 96.6283 44.148C96.5563 44.124 96.4683 44.112 96.3643 44.112H92.3443V37.284C92.3443 37.172 92.3323 37.076 92.3083 36.996C92.2843 36.916 92.2323 36.856 92.1523 36.816C92.0803 36.768 91.9643 36.744 91.8043 36.744C91.6443 36.744 91.5243 36.768 91.4443 36.816C91.3723 36.856 91.3243 36.916 91.3003 36.996C91.2763 37.076 91.2643 37.176 91.2643 37.296V44.58C91.2643 44.692 91.2763 44.788 91.3003 44.868C91.3323 44.948 91.3883 45.008 91.4683 45.048ZM105.468 44.664C105.468 44.576 105.436 44.472 105.372 44.352L101.892 37.08C101.86 37 101.82 36.936 101.772 36.888C101.724 36.84 101.668 36.804 101.604 36.78C101.54 36.756 101.472 36.744 101.4 36.744C101.296 36.744 101.196 36.776 101.1 36.84C101.012 36.896 100.944 36.972 100.896 37.068L97.4517 44.256C97.3877 44.392 97.3477 44.512 97.3317 44.616C97.3237 44.72 97.3437 44.808 97.3917 44.88C97.4477 44.952 97.5357 45.012 97.6557 45.06C97.8557 45.148 98.0077 45.168 98.1117 45.12C98.2237 45.072 98.3237 44.956 98.4117 44.772L99.3645 42.732H103.423L104.388 44.784C104.476 44.968 104.572 45.084 104.676 45.132C104.788 45.18 104.94 45.16 105.132 45.072C105.252 45.016 105.34 44.956 105.396 44.892C105.452 44.82 105.476 44.744 105.468 44.664ZM102.989 41.808L101.388 38.4L99.796 41.808H102.989ZM112.945 37.116C112.929 37.012 112.837 36.9 112.669 36.78C112.549 36.7 112.445 36.656 112.357 36.648C112.269 36.632 112.189 36.644 112.117 36.684C112.053 36.724 111.985 36.8 111.913 36.912L109.453 40.752L107.005 36.912C106.941 36.8 106.873 36.724 106.801 36.684C106.729 36.636 106.649 36.624 106.561 36.648C106.481 36.664 106.381 36.712 106.261 36.792C106.093 36.912 105.997 37.028 105.973 37.14C105.949 37.244 105.985 37.368 106.081 37.512L108.913 41.76V44.568C108.913 44.68 108.925 44.78 108.949 44.868C108.981 44.956 109.033 45.02 109.105 45.06C109.185 45.108 109.305 45.132 109.465 45.132C109.625 45.132 109.741 45.108 109.813 45.06C109.893 45.02 109.945 44.96 109.969 44.88C109.993 44.792 110.005 44.696 110.005 44.592V41.772L112.825 37.488C112.929 37.344 112.969 37.22 112.945 37.116Z" fill="black"/>
</svg>
