<svg width="163" height="72" viewBox="0 0 163 72" fill="none" xmlns="http://www.w3.org/2000/svg">
<path fill-rule="evenodd" clip-rule="evenodd" d="M62.5067 19.634L57.0067 9L51.0067 19.634L57.0067 32L62.5067 19.634ZM136.241 42.8111C136.575 42.5879 136.967 42.4688 137.369 42.4688C137.908 42.4693 138.424 42.6835 138.805 43.0643C139.186 43.4451 139.4 43.9615 139.4 44.5C139.4 44.9017 139.281 45.2945 139.058 45.6285C138.835 45.9625 138.518 46.2229 138.146 46.3766C137.775 46.5304 137.367 46.5706 136.973 46.4922C136.579 46.4138 136.217 46.2204 135.933 45.9363C135.649 45.6522 135.455 45.2903 135.377 44.8963C135.298 44.5023 135.339 44.0938 135.492 43.7227C135.646 43.3515 135.907 43.0343 136.241 42.8111ZM136.414 45.9291C136.697 46.1179 137.029 46.2188 137.369 46.2188C137.825 46.2182 138.262 46.037 138.584 45.7148C138.906 45.3926 139.087 44.9557 139.088 44.5C139.088 44.1601 138.987 43.8278 138.798 43.5451C138.609 43.2625 138.341 43.0422 138.027 42.9121C137.713 42.782 137.367 42.748 137.034 42.8143C136.7 42.8806 136.394 43.0443 136.154 43.2847C135.913 43.525 135.75 43.8313 135.683 44.1647C135.617 44.4981 135.651 44.8437 135.781 45.1577C135.911 45.4718 136.132 45.7402 136.414 45.9291ZM137.011 44.1417C137.04 44.1124 137.057 44.0727 137.057 44.0312C137.057 43.9898 137.04 43.9501 137.011 43.9208C136.981 43.8915 136.942 43.875 136.9 43.875H136.275C136.234 43.875 136.194 43.8915 136.165 43.9208C136.136 43.9501 136.119 43.9898 136.119 44.0312C136.119 44.0727 136.136 44.1124 136.165 44.1417C136.194 44.171 136.234 44.1875 136.275 44.1875H136.432V44.9688C136.432 45.0102 136.448 45.0499 136.477 45.0792C136.507 45.1085 136.546 45.125 136.588 45.125C136.629 45.125 136.669 45.1085 136.698 45.0792C136.728 45.0499 136.744 45.0102 136.744 44.9688V44.1875H136.9C136.942 44.1875 136.981 44.171 137.011 44.1417ZM138.573 45.0792C138.603 45.0499 138.619 45.0102 138.619 44.9688V44.0312C138.619 43.9995 138.609 43.9686 138.591 43.9426C138.573 43.9165 138.548 43.8966 138.518 43.8854C138.488 43.8743 138.456 43.8724 138.425 43.88C138.394 43.8877 138.367 43.9045 138.346 43.9283L137.916 44.4189L137.486 43.9283C137.465 43.9045 137.438 43.8877 137.407 43.88C137.376 43.8724 137.344 43.8743 137.314 43.8854C137.284 43.8966 137.259 43.9165 137.241 43.9426C137.223 43.9686 137.213 43.9995 137.213 44.0312V44.9688C137.213 45.0102 137.229 45.0499 137.259 45.0792C137.288 45.1085 137.328 45.125 137.369 45.125C137.411 45.125 137.45 45.1085 137.48 45.0792C137.509 45.0499 137.525 45.0102 137.525 44.9688V44.4471L137.799 44.7596C137.813 44.7762 137.831 44.7895 137.852 44.7986C137.872 44.8078 137.894 44.8125 137.916 44.8125C137.938 44.8125 137.96 44.8078 137.98 44.7986C138 44.7895 138.018 44.7762 138.033 44.7596L138.307 44.4471V44.9688C138.307 45.0102 138.323 45.0499 138.352 45.0792C138.382 45.1085 138.421 45.125 138.463 45.125C138.504 45.125 138.544 45.1085 138.573 45.0792ZM75.0934 44.6818L86.8241 40.3344L91.2849 38.6812L86.7803 37.1512L75.0934 33.1818L70.9233 22.2001L67.869 14.1568L67.927 22.7603L67.939 24.5391L57.3296 38.4131L45.3291 23.841L45.3391 21.9467L45.3806 14.1233L42.3423 21.3328L37.3488 33.1818L26.4467 37.0881L22 38.6814L26.4466 40.2749L37.3488 44.1818L42.1577 56.1295L45.1187 63.4861L45.1608 55.556L45.3125 26.967L56.6267 40.7057L57.3702 41.9965L58.2104 40.5536L67.961 27.8028L68.1441 54.9454L68.202 63.5191L71.1477 55.4672L75.0934 44.6818ZM71.0899 46.8934L72.2761 43.6511L72.752 42.3502L74.0509 41.8688L82.3195 38.8044L74.1286 36.0224L72.7905 35.568L72.2888 34.2468L70.9813 30.8036L71.0899 46.8934ZM40.1133 34.3468L42.3008 29.1562L42.1998 48.1994L40.1318 43.0616L39.6289 41.812L38.3609 41.3576L30.8933 38.6816L38.3607 36.0059L39.6015 35.5614L40.1133 34.3468ZM82.2809 53.88C82.7049 54.064 83.1849 54.156 83.7209 54.156C84.2649 54.156 84.7489 54.064 85.1729 53.88C85.6049 53.696 85.9649 53.436 86.2529 53.1C86.5489 52.756 86.7729 52.356 86.9249 51.9C87.0769 51.436 87.1529 50.924 87.1529 50.364V46.296C87.1529 46.176 87.1409 46.076 87.1169 45.996C87.0929 45.916 87.0409 45.856 86.9609 45.816C86.8889 45.768 86.7769 45.744 86.6249 45.744C86.4649 45.744 86.3449 45.764 86.2649 45.804C86.1849 45.844 86.1289 45.9 86.0969 45.972C86.0729 46.036 86.0609 46.116 86.0609 46.212V50.328C86.0609 50.896 85.9689 51.384 85.7849 51.792C85.6009 52.2 85.3369 52.516 84.9929 52.74C84.6489 52.964 84.2369 53.076 83.7569 53.076C83.2449 53.076 82.8169 52.96 82.4729 52.728C82.1289 52.488 81.8689 52.164 81.6929 51.756C81.5169 51.348 81.4289 50.876 81.4289 50.34V46.296C81.4289 46.176 81.4169 46.076 81.3929 45.996C81.3689 45.916 81.3169 45.856 81.2369 45.816C81.1569 45.768 81.0369 45.744 80.8769 45.744C80.7169 45.744 80.5969 45.768 80.5169 45.816C80.4449 45.856 80.3929 45.916 80.3609 45.996C80.3369 46.076 80.3249 46.172 80.3249 46.284V50.34C80.3249 50.892 80.4009 51.404 80.5529 51.876C80.7049 52.34 80.9249 52.744 81.2129 53.088C81.5089 53.424 81.8649 53.688 82.2809 53.88ZM88.9995 54.048C89.0796 54.096 89.1996 54.12 89.3596 54.12H93.9076C94.0116 54.12 94.0996 54.108 94.1716 54.084C94.2436 54.06 94.2996 54.012 94.3396 53.94C94.3796 53.86 94.3996 53.752 94.3996 53.616C94.3996 53.472 94.3755 53.364 94.3276 53.292C94.2876 53.22 94.2316 53.172 94.1596 53.148C94.0876 53.124 93.9995 53.112 93.8956 53.112H89.8755V46.284C89.8755 46.172 89.8636 46.076 89.8396 45.996C89.8156 45.916 89.7635 45.856 89.6836 45.816C89.6115 45.768 89.4956 45.744 89.3356 45.744C89.1756 45.744 89.0555 45.768 88.9756 45.816C88.9035 45.856 88.8556 45.916 88.8316 45.996C88.8076 46.076 88.7956 46.176 88.7956 46.296V53.58C88.7956 53.692 88.8076 53.788 88.8316 53.868C88.8636 53.948 88.9196 54.008 88.9995 54.048ZM102.003 45.78C101.939 45.756 101.855 45.744 101.751 45.744H95.643C95.547 45.744 95.459 45.756 95.379 45.78C95.307 45.804 95.251 45.852 95.211 45.924C95.179 45.988 95.163 46.096 95.163 46.248C95.163 46.392 95.183 46.5 95.223 46.572C95.263 46.644 95.319 46.692 95.391 46.716C95.463 46.732 95.551 46.74 95.655 46.74H98.175V53.58C98.175 53.684 98.183 53.78 98.199 53.868C98.223 53.948 98.271 54.008 98.343 54.048C98.423 54.096 98.543 54.12 98.703 54.12C98.855 54.12 98.967 54.096 99.039 54.048C99.119 54.008 99.171 53.948 99.195 53.868C99.227 53.788 99.243 53.696 99.243 53.592V46.74H101.727C101.831 46.74 101.919 46.732 101.991 46.716C102.063 46.692 102.119 46.644 102.159 46.572C102.207 46.5 102.231 46.392 102.231 46.248C102.231 46.096 102.211 45.988 102.171 45.924C102.131 45.852 102.075 45.804 102.003 45.78ZM103.612 54.048C103.692 54.096 103.812 54.12 103.972 54.12C104.132 54.12 104.248 54.096 104.32 54.048C104.4 54.008 104.452 53.948 104.476 53.868C104.5 53.788 104.512 53.692 104.512 53.58V46.296C104.512 46.176 104.5 46.076 104.476 45.996C104.46 45.916 104.412 45.856 104.332 45.816C104.26 45.768 104.144 45.744 103.984 45.744C103.824 45.744 103.704 45.768 103.624 45.816C103.552 45.856 103.5 45.916 103.468 45.996C103.444 46.076 103.432 46.172 103.432 46.284V53.568C103.432 53.68 103.444 53.78 103.468 53.868C103.492 53.948 103.54 54.008 103.612 54.048ZM106.285 54.048C106.365 54.096 106.481 54.12 106.633 54.12C106.801 54.12 106.921 54.096 106.993 54.048C107.073 54.008 107.125 53.948 107.149 53.868C107.181 53.788 107.197 53.692 107.197 53.58V51.168H109.261C109.645 51.168 109.997 51.108 110.317 50.988C110.645 50.868 110.933 50.696 111.181 50.472C111.429 50.24 111.621 49.956 111.757 49.62C111.893 49.284 111.961 48.9 111.961 48.468C111.961 48.028 111.893 47.64 111.757 47.304C111.621 46.968 111.429 46.684 111.181 46.452C110.941 46.212 110.657 46.036 110.329 45.924C110.009 45.804 109.657 45.744 109.273 45.744H106.645C106.501 45.744 106.389 45.768 106.309 45.816C106.229 45.864 106.173 45.928 106.141 46.008C106.117 46.088 106.105 46.18 106.105 46.284V53.568C106.105 53.68 106.117 53.78 106.141 53.868C106.165 53.948 106.213 54.008 106.285 54.048ZM109.273 50.076H107.197V46.836H109.261C109.597 46.836 109.885 46.9 110.125 47.028C110.373 47.156 110.561 47.34 110.689 47.58C110.817 47.82 110.881 48.108 110.881 48.444C110.881 48.796 110.813 49.096 110.677 49.344C110.541 49.584 110.353 49.768 110.113 49.896C109.873 50.016 109.593 50.076 109.273 50.076ZM113.468 54.048C113.548 54.096 113.668 54.12 113.828 54.12H118.376C118.48 54.12 118.568 54.108 118.64 54.084C118.712 54.06 118.768 54.012 118.808 53.94C118.848 53.86 118.868 53.752 118.868 53.616C118.868 53.472 118.844 53.364 118.796 53.292C118.756 53.22 118.7 53.172 118.628 53.148C118.556 53.124 118.468 53.112 118.364 53.112H114.344V46.284C114.344 46.172 114.332 46.076 114.308 45.996C114.284 45.916 114.232 45.856 114.152 45.816C114.08 45.768 113.964 45.744 113.804 45.744C113.644 45.744 113.524 45.768 113.444 45.816C113.372 45.856 113.324 45.916 113.3 45.996C113.276 46.076 113.264 46.176 113.264 46.296V53.58C113.264 53.692 113.276 53.788 113.3 53.868C113.332 53.948 113.388 54.008 113.468 54.048ZM127.468 53.664C127.468 53.576 127.436 53.472 127.372 53.352L123.892 46.08C123.86 46 123.82 45.936 123.772 45.888C123.724 45.84 123.668 45.804 123.604 45.78C123.54 45.756 123.472 45.744 123.4 45.744C123.296 45.744 123.196 45.776 123.1 45.84C123.012 45.896 122.944 45.972 122.896 46.068L119.452 53.256C119.388 53.392 119.348 53.512 119.332 53.616C119.324 53.72 119.344 53.808 119.392 53.88C119.448 53.952 119.536 54.012 119.656 54.06C119.856 54.148 120.008 54.168 120.112 54.12C120.224 54.072 120.324 53.956 120.412 53.772L121.364 51.732H125.423L126.388 53.784C126.476 53.968 126.572 54.084 126.676 54.132C126.788 54.18 126.94 54.16 127.132 54.072C127.252 54.016 127.34 53.956 127.396 53.892C127.452 53.82 127.476 53.744 127.468 53.664ZM124.989 50.808L123.388 47.4L121.796 50.808H124.989ZM134.945 46.116C134.929 46.012 134.837 45.9 134.669 45.78C134.549 45.7 134.445 45.656 134.357 45.648C134.269 45.632 134.189 45.644 134.117 45.684C134.053 45.724 133.985 45.8 133.913 45.912L131.453 49.752L129.005 45.912C128.941 45.8 128.873 45.724 128.801 45.684C128.729 45.636 128.649 45.624 128.561 45.648C128.481 45.664 128.381 45.712 128.261 45.792C128.093 45.912 127.997 46.028 127.973 46.14C127.949 46.244 127.985 46.368 128.081 46.512L130.913 50.76V53.568C130.913 53.68 130.925 53.78 130.949 53.868C130.981 53.956 131.033 54.02 131.105 54.06C131.185 54.108 131.305 54.132 131.465 54.132C131.625 54.132 131.741 54.108 131.813 54.06C131.893 54.02 131.945 53.96 131.969 53.88C131.993 53.792 132.005 53.696 132.005 53.592V50.772L134.825 46.488C134.929 46.344 134.969 46.22 134.945 46.116Z" fill="black"/>
</svg>
